<?xml version="1.0" encoding="utf-8"?>
<!-- Generator: Adobe Illustrator 22.0.0, SVG Export Plug-In . SVG Version: 6.00 Build 0)  -->
<svg version="1.1" id="Layer_1" xmlns="http://www.w3.org/2000/svg" xmlns:xlink="http://www.w3.org/1999/xlink" x="0px" y="0px"
	 viewBox="0 0 256 256" style="enable-background:new 0 0 256 256;" xml:space="preserve">
<style type="text/css">
	.st0{fill:#F4F4F4;}
	.st1{opacity:0.1;enable-background:new    ;}
	.st2{clip-path:url(#SVGID_2_);}
	.st3{fill:none;}
	.st4{fill:none;stroke:#666666;stroke-width:1.875;stroke-miterlimit:10;}
	.st5{fill:#666666;}
	.st6{fill:#F7B40D;}
	.st7{fill:#8D66D8;}
	.st8{fill:#E04B44;}
</style>
<path class="st0" d="M51.9,9.3h152.3c23.5,0,42.5,19,42.5,42.5v152.3c0,23.5-19,42.5-42.5,42.5H51.9c-23.5,0-42.5-19-42.5-42.5V51.9
	C9.3,28.4,28.4,9.3,51.9,9.3z"/>
<g class="st1">
	<g>
		<defs>
			<path id="SVGID_1_" d="M51.9,9.3h152.3c23.5,0,42.5,19,42.5,42.5v152.3c0,23.5-19,42.5-42.5,42.5H51.9c-23.5,0-42.5-19-42.5-42.5
				V51.9C9.3,28.4,28.4,9.3,51.9,9.3z"/>
		</defs>
		<clipPath id="SVGID_2_">
			<use xlink:href="#SVGID_1_"  style="overflow:visible;"/>
		</clipPath>
		<g class="st2">
			<rect x="12.3" y="-15.7" class="st3" width="300" height="300"/>
			<g>
				<rect x="12.3" y="-15.7" class="st3" width="300" height="300"/>
				<rect x="12.3" y="-15.7" class="st3" width="300" height="300"/>
				
					<ellipse transform="matrix(0.1688 -0.9856 0.9856 0.1688 124.0072 303.2657)" class="st4" cx="241.8" cy="78.1" rx="8.4" ry="8.4"/>
				<rect x="208.5" y="145.2" class="st4" width="11" height="11"/>
				<line class="st4" x1="297.7" y1="206.5" x2="291.3" y2="225.5"/>
				<polygon class="st4" points="282.2,23.5 280.6,33.7 288.3,34.8 				"/>
				<polyline class="st4" points="221.3,37.2 221.3,27.5 232.5,27.5 232.5,19.6 240.7,19.6 				"/>
				<circle class="st5" cx="231.4" cy="208.9" r="1.9"/>
				<circle class="st5" cx="157.9" cy="128.1" r="1.9"/>
				<circle class="st5" cx="303.1" cy="96.9" r="1.9"/>
				<circle class="st5" cx="97.9" cy="267" r="1.9"/>
				<path class="st4" d="M278,143.3c0,0,7.1,3.7,3.5,14.6"/>
				<path class="st4" d="M144.5,220.2c0,0,2.5-16,17.8-16.4"/>
				<rect x="115.9" y="171.8" class="st5" width="4" height="4"/>
				<rect x="165.3" y="-2.6" class="st5" width="4" height="4"/>
				<rect x="38.5" y="25.2" class="st5" width="4" height="4"/>
				<rect x="12.3" y="-15.7" class="st3" width="300" height="300"/>
				<line class="st4" x1="39.6" y1="68.7" x2="50.7" y2="74.9"/>
				<polyline class="st4" points="20.6,265.5 25.2,268.3 22.5,272.2 27.5,273.5 24,278.3 				"/>
				<polygon class="st4" points="47.1,215.1 49.7,222.8 54.6,218.1 				"/>
				<polygon class="st4" points="48,148.2 57.5,155.7 54,166.2 42.4,166.2 38.5,155.5 				"/>
				<path class="st4" d="M98,39.9c0,0,14.2-10.4,24.9,1.9"/>
				<polygon class="st4" points="95.6,96.9 102.6,96.9 105.9,102.4 102.9,108.5 95.6,108.5 92.1,102.6 				"/>
				<polygon class="st4" points="171.3,71.5 173.6,81.7 181.5,75.2 				"/>
				<path class="st4" d="M205.8,263.9c-6.4,6.5-16.9,6.5-23.5,0c-5.2-5.2-5.2-13.7,0-18.8l0,0l0,0c4.1-4.1,10.9-4.1,15,0l0,0l0,0
					c3.3,3.3,3.3,8.7,0,12l0,0c-2.6,2.6-7,2.6-9.6,0l0,0c-2.1-2.2-2.1-5.6,0-7.7c1.7-1.7,4.4-1.7,6.1,0l0,0c1.4,1.4,1.4,3.6,0,4.9
					c-1.1,1.1-2.8,1.1-4,0c-0.9-0.9-0.9-2.2,0-3.2"/>
			</g>
		</g>
		<g class="st2">
			<rect x="-287.7" y="-15.7" class="st3" width="300" height="300"/>
			<g>
				<rect x="-287.7" y="-15.7" class="st3" width="300" height="300"/>
				<rect x="-287.7" y="-15.7" class="st3" width="300" height="300"/>
				
					<ellipse transform="matrix(0.1688 -0.9856 0.9856 0.1688 -125.3415 7.5725)" class="st4" cx="-58.2" cy="78.1" rx="8.4" ry="8.4"/>
				<rect x="-91.5" y="145.2" class="st4" width="11" height="11"/>
				<line class="st4" x1="-2.3" y1="206.5" x2="-8.7" y2="225.5"/>
				<polygon class="st4" points="-17.8,23.5 -19.4,33.7 -11.7,34.8 				"/>
				<polyline class="st4" points="-78.7,37.2 -78.7,27.5 -67.5,27.5 -67.5,19.6 -59.3,19.6 				"/>
				<circle class="st5" cx="-68.6" cy="208.9" r="1.9"/>
				<circle class="st5" cx="-142.1" cy="128.1" r="1.9"/>
				<circle class="st5" cx="3.1" cy="96.9" r="1.9"/>
				<circle class="st5" cx="-202.1" cy="267" r="1.9"/>
				<path class="st4" d="M-22,143.3c0,0,7.1,3.7,3.5,14.6"/>
				<path class="st4" d="M-155.5,220.2c0,0,2.5-16,17.8-16.4"/>
				<rect x="-184.1" y="171.8" class="st5" width="4" height="4"/>
				<rect x="-134.7" y="-2.6" class="st5" width="4" height="4"/>
				<rect x="-261.5" y="25.2" class="st5" width="4" height="4"/>
				<rect x="-287.7" y="-15.7" class="st3" width="300" height="300"/>
				<line class="st4" x1="-260.4" y1="68.7" x2="-249.3" y2="74.9"/>
				<polyline class="st4" points="-279.4,265.5 -274.8,268.3 -277.5,272.2 -272.5,273.5 -276,278.3 				"/>
				<polygon class="st4" points="-252.9,215.1 -250.3,222.8 -245.4,218.1 				"/>
				<polygon class="st4" points="-252,148.2 -242.5,155.7 -246,166.2 -257.6,166.2 -261.5,155.5 				"/>
				<path class="st4" d="M-202,39.9c0,0,14.2-10.4,24.9,1.9"/>
				<polygon class="st4" points="-204.4,96.9 -197.4,96.9 -194.1,102.4 -197.1,108.5 -204.4,108.5 -207.9,102.6 				"/>
				<polygon class="st4" points="-128.7,71.5 -126.4,81.7 -118.5,75.2 				"/>
				<path class="st4" d="M-94.2,263.9c-6.4,6.5-16.9,6.5-23.5,0c-5.2-5.2-5.2-13.7,0-18.8l0,0l0,0c4.1-4.1,10.9-4.1,15,0l0,0l0,0
					c3.3,3.3,3.3,8.7,0,12l0,0c-2.6,2.6-7,2.6-9.6,0l0,0c-2.1-2.2-2.1-5.6,0-7.7c1.7-1.7,4.4-1.7,6.2,0l0,0c1.3,1.4,1.3,3.6,0,4.9
					c-1.1,1.1-2.9,1.1-4,0c-0.9-0.9-0.9-2.2,0-3.2"/>
			</g>
		</g>
	</g>
</g>
<path class="st6" d="M117.9,112.6l-5.9,9.1v0.1c-5,7.8-15.5,10-23.3,5c-1.9-1.2-3.4-2.8-4.7-4.6l-0.5-0.7v-0.1
	c-4.8-7.9-2.3-18.3,5.6-23.1c7.7-4.7,17.8-2.5,22.8,5.1l0.1,0.2L117.9,112.6z"/>
<path class="st7" d="M175,143.4c0,9.3-7.5,16.8-16.8,16.8c-5.6,0-10.9-2.8-14-7.5l-0.1-0.2l-6-9.1l5.9-8.9l0.5-0.8v-0.1
	c5.4-7.6,15.9-9.3,23.4-3.9c1.6,1.1,3,2.5,4.1,4.1l0.3,0.5l0.1,0.1C174.1,137.1,175,140.2,175,143.4z"/>
<path class="st1" d="M173.2,150.9c-4.2,8.3-14.3,11.7-22.6,7.5c-2.6-1.3-4.9-3.3-6.5-5.8l-0.1-0.2l-6-9.1l5.9-8.9l0.5-0.8v-0.1
	c0.3-0.4,0.6-0.8,0.9-1.2l-4.6,6.9l6,9.1l0.1,0.2c5.1,7.7,15.6,9.9,23.3,4.7C171.4,152.6,172.4,151.8,173.2,150.9L173.2,150.9z"/>
<path class="st1" d="M171.9,133.7c-7.6-5.3-18-3.5-23.4,4v0.1l-0.5,0.8l-5.9,8.9c0,0-0.2,0.4-0.7,1l-3.3-5.1l5.9-8.9l0.5-0.8v-0.1
	c5.4-7.6,15.9-9.3,23.4-3.9C169.5,130.8,170.8,132.1,171.9,133.7L171.9,133.7z"/>
<path class="st1" d="M117.9,112.6l-5.9,9.1v0.1c-5,7.8-15.5,10-23.3,5c-1.9-1.2-3.4-2.8-4.7-4.6l-0.5-0.7v-0.1
	c-0.2-0.4-0.5-0.8-0.7-1.2c6.4,6.7,17,7.1,23.8,0.7c1-0.9,1.8-2,2.6-3.1v-0.1l5.9-9.1l0.1-0.1L117.9,112.6z"/>
<path class="st8" d="M172,133.8c-5.3-7.6-15.7-9.6-23.4-4.3c-1.6,1.1-3,2.5-4.1,4.1v0.1l-0.5,0.8l-5.9,8.9c0,0-10.9,16.9-20.2,16.9
	c-5.7,0-11.1-2.9-14.2-7.8L84,122.2c5.3,7.6,15.7,9.6,23.4,4.3c1.8-1.3,3.4-2.8,4.6-4.7v-0.1l5.9-9.1l5.8-9v-0.1
	c5-7.8,15.5-10,23.3-5c1.9,1.3,3.6,2.9,4.9,4.9l0.1,0.2L172,133.8z"/>
<path class="st1" d="M118.9,160.1c-0.4,0.1-0.7,0.1-1.1,0.1c-5.7,0-11.1-2.9-14.2-7.8L84,122.2c2.5,3.6,6.2,6,10.4,6.9l15.7,24.1
	C112.2,156.5,115.3,158.9,118.9,160.1z"/>
</svg>
